<?xml version="1.0" encoding="UTF-8" standalone="no"?>
<!-- Created with Inkscape (http://www.inkscape.org/) -->

<svg
   xmlns:dc="http://purl.org/dc/elements/1.1/"
   xmlns:cc="http://creativecommons.org/ns#"
   xmlns:rdf="http://www.w3.org/1999/02/22-rdf-syntax-ns#"
   xmlns:svg="http://www.w3.org/2000/svg"
   xmlns="http://www.w3.org/2000/svg"
   xmlns:sodipodi="http://sodipodi.sourceforge.net/DTD/sodipodi-0.dtd"
   xmlns:inkscape="http://www.inkscape.org/namespaces/inkscape"
   width="259.29166mm"
   height="259.28876mm"
   viewBox="0 0 259.29166 259.28876"
   version="1.1"
   id="svg1998"
   inkscape:version="0.92.3 (2405546, 2018-03-11)"
   sodipodi:docname="icon.svg">
  <defs
     id="defs1992" />
  <sodipodi:namedview
     id="base"
     pagecolor="#ffffff"
     bordercolor="#666666"
     borderopacity="1.0"
     inkscape:pageopacity="0.0"
     inkscape:pageshadow="2"
     inkscape:zoom="31.678384"
     inkscape:cx="28.650672"
     inkscape:cy="6.8026448"
     inkscape:document-units="mm"
     inkscape:current-layer="layer1"
     showgrid="true"
     fit-margin-top="0"
     fit-margin-left="0"
     fit-margin-right="0"
     fit-margin-bottom="0"
     inkscape:window-width="3840"
     inkscape:window-height="2066"
     inkscape:window-x="-11"
     inkscape:window-y="-11"
     inkscape:window-maximized="1">
    <inkscape:grid
       type="xygrid"
       id="grid2543"
       originx="-180.20772"
       originy="-168.67188" />
  </sodipodi:namedview>
  <metadata
     id="metadata1995">
    <rdf:RDF>
      <cc:Work
         rdf:about="">
        <dc:format>image/svg+xml</dc:format>
        <dc:type
           rdf:resource="http://purl.org/dc/dcmitype/StillImage" />
        <dc:title></dc:title>
      </cc:Work>
    </rdf:RDF>
  </metadata>
  <g
     inkscape:label="Calque 1"
     inkscape:groupmode="layer"
     id="layer1"
     transform="translate(-180.20771,130.96063)">
    <g
       id="g2625"
       transform="matrix(0.26458333,0,0,0.26458333,177.56188,-133.60937)"
       style="fill:#404040;fill-opacity:1">
      <g
         id="g2593"
         style="fill:#404040;fill-opacity:1">
        <g
           id="g2591"
           style="fill:#404040;fill-opacity:1">
          <path
             id="path2589"
             d="m 368.9,787.5 -49.6,49.2 c -43,42.6 -112.9,42.6 -155.9,0 -20.7,-20.5 -32,-47.7 -32,-76.6 0,-28.9 11.4,-56.2 32,-76.7 L 346,502.4 c 37.8,-37.5 109,-92.7 160.9,-41.3 23.8,23.6 62.2,23.5 85.9,-0.3 23.6,-23.8 23.5,-62.2 -0.3,-85.9 -88.2,-87.5 -218.5,-71.3 -332,41.3 L 77.9,597.3 C 34.1,640.8 10,698.6 10,760.1 c 0,61.5 24.1,119.4 67.9,162.8 45.1,44.8 104.3,67.1 163.5,67.1 59.2,0 118.4,-22.3 163.5,-67.1 l 49.6,-49.3 c 23.8,-23.6 23.9,-62.1 0.3,-85.9 -23.6,-23.7 -62.1,-23.8 -85.9,-0.2 z M 922.1,84 C 827.4,-9.9 695,-15 607.3,72 l -61.8,61.4 c -23.8,23.6 -23.9,62.1 -0.3,85.9 23.6,23.8 62.1,23.9 85.9,0.3 l 61.8,-61.3 c 45.4,-45.1 104.9,-26.4 143.7,12.1 20.7,20.5 32,47.7 32,76.7 0,28.9 -11.4,56.2 -32,76.7 l -194.8,193 c -89,88.3 -130.8,46.9 -148.6,29.2 -23.8,-23.6 -62.2,-23.5 -85.9,0.3 -23.6,23.8 -23.5,62.2 0.3,85.9 40.9,40.6 87.5,60.7 136.5,60.7 59.9,0 123.1,-30.2 183.3,-89.9 L 922.1,409.8 C 965.9,366.3 990,308.5 990,246.9 990,185.4 965.9,127.5 922.1,84 Z"
             inkscape:connector-curvature="0"
             style="fill:#404040;fill-opacity:1" />
        </g>
      </g>
      <g
         id="g2595"
         style="fill:#404040;fill-opacity:1" />
      <g
         id="g2597"
         style="fill:#404040;fill-opacity:1" />
      <g
         id="g2599"
         style="fill:#404040;fill-opacity:1" />
      <g
         id="g2601"
         style="fill:#404040;fill-opacity:1" />
      <g
         id="g2603"
         style="fill:#404040;fill-opacity:1" />
      <g
         id="g2605"
         style="fill:#404040;fill-opacity:1" />
      <g
         id="g2607"
         style="fill:#404040;fill-opacity:1" />
      <g
         id="g2609"
         style="fill:#404040;fill-opacity:1" />
      <g
         id="g2611"
         style="fill:#404040;fill-opacity:1" />
      <g
         id="g2613"
         style="fill:#404040;fill-opacity:1" />
      <g
         id="g2615"
         style="fill:#404040;fill-opacity:1" />
      <g
         id="g2617"
         style="fill:#404040;fill-opacity:1" />
      <g
         id="g2619"
         style="fill:#404040;fill-opacity:1" />
      <g
         id="g2621"
         style="fill:#404040;fill-opacity:1" />
      <g
         id="g2623"
         style="fill:#404040;fill-opacity:1" />
    </g>
    <circle
       style="opacity:1;fill:#404040;fill-opacity:1;stroke:#404040;stroke-width:1.13385832;stroke-linecap:round;stroke-linejoin:round;stroke-miterlimit:4;stroke-dasharray:none;stroke-opacity:1;paint-order:stroke fill markers"
       id="path2652"
       cx="401.03275"
       cy="88.92411"
       r="35.71875" />
    <path
       style="opacity:1;fill:#ffffff;fill-opacity:1;stroke:#ffffff;stroke-width:6.96131277;stroke-linecap:round;stroke-linejoin:round;stroke-miterlimit:4;stroke-dasharray:none;stroke-opacity:1;paint-order:stroke fill markers"
       d="m 381,85.333344 h 39.68749 v 6.614585 H 381 Z"
       id="rect2656" />
  </g>
</svg>
